<?xml version="1.0" encoding="UTF-8"?>
<svg version="1.1" xmlns="http://www.w3.org/2000/svg" width="512" height="512">
<path d="M0 0 C1.45108658 0.00273422 1.45108658 0.00273422 2.93148804 0.00552368 C17.26440977 0.05095174 31.21023917 0.55983928 45.3125 3.3125 C46.65803955 3.55395752 46.65803955 3.55395752 48.03076172 3.80029297 C107.84088904 14.62287989 165.35495829 48.68064457 202.3125 97.3125 C202.72918945 97.85277832 203.14587891 98.39305664 203.57519531 98.94970703 C211.2584873 108.9447116 218.00092968 119.40459036 224.3125 130.3125 C224.70679199 130.98974121 225.10108398 131.66698242 225.50732422 132.36474609 C238.68961173 155.2833756 247.29510918 180.85822563 252.625 206.6875 C252.77243652 207.39817627 252.91987305 208.10885254 253.07177734 208.84106445 C255.90934438 223.70918386 256.66283959 238.58655407 256.62817383 253.68798828 C256.6250179 256.54628882 256.64857578 259.40354516 256.67382812 262.26171875 C256.71920177 275.49529805 255.48145966 288.26366546 253.3125 301.3125 C253.03031616 303.01913818 253.03031616 303.01913818 252.74243164 304.76025391 C242.05619461 364.20472909 207.56349705 421.64438976 159.3125 458.3125 C158.77222168 458.72918945 158.23194336 459.14587891 157.67529297 459.57519531 C147.6802884 467.2584873 137.22040964 474.00092968 126.3125 480.3125 C125.63525879 480.70679199 124.95801758 481.10108398 124.26025391 481.50732422 C101.3416244 494.68961173 75.76677437 503.29510918 49.9375 508.625 C49.22682373 508.77243652 48.51614746 508.91987305 47.78393555 509.07177734 C32.14141634 512.05713787 16.50580394 512.6873098 0.625 512.625 C-0.34239105 512.62317719 -1.3097821 512.62135437 -2.30648804 512.61947632 C-16.63940977 512.57404826 -30.58523917 512.06516072 -44.6875 509.3125 C-45.58452637 509.15152832 -46.48155273 508.99055664 -47.40576172 508.82470703 C-107.21588904 498.00212011 -164.72995829 463.94435543 -201.6875 415.3125 C-202.10418945 414.77222168 -202.52087891 414.23194336 -202.95019531 413.67529297 C-210.6334873 403.6802884 -217.37592968 393.22040964 -223.6875 382.3125 C-224.08179199 381.63525879 -224.47608398 380.95801758 -224.88232422 380.26025391 C-238.06461173 357.3416244 -246.67010918 331.76677437 -252 305.9375 C-252.14743652 305.22682373 -252.29487305 304.51614746 -252.44677734 303.78393555 C-255.43213787 288.14141634 -256.0623098 272.50580394 -256 256.625 C-255.99817719 255.65760895 -255.99635437 254.6902179 -255.99447632 253.69351196 C-255.94904826 239.36059023 -255.44016072 225.41476083 -252.6875 211.3125 C-252.44604248 209.96696045 -252.44604248 209.96696045 -252.19970703 208.59423828 C-241.37712011 148.78411096 -207.31935543 91.27004171 -158.6875 54.3125 C-158.14722168 53.89581055 -157.60694336 53.47912109 -157.05029297 53.04980469 C-147.0552884 45.3665127 -136.59540964 38.62407032 -125.6875 32.3125 C-125.01025879 31.91820801 -124.33301758 31.52391602 -123.63525391 31.11767578 C-100.7166244 17.93538827 -75.14177437 9.32989082 -49.3125 4 C-48.60182373 3.85256348 -47.89114746 3.70512695 -47.15893555 3.55322266 C-31.51641634 0.56786213 -15.88080394 -0.0623098 0 0 Z " fill="#32BA7C" transform="translate(255.6875,-0.3125)"/>
<path d="M0 0 C5.5546329 3.7720573 10.24369407 8.11548262 14.93969727 12.90625 C18.06124361 16.08416132 21.27248958 19.04995524 24.65625 21.94140625 C27.9198366 24.80792315 31.0808314 27.77984411 34.25 30.75 C39.81711901 35.96547528 45.41297554 41.14533105 51.04296875 46.29296875 C54.18333226 49.1649072 57.31128119 52.0501803 60.4375 54.9375 C60.97342773 55.43217773 61.50935547 55.92685547 62.06152344 56.43652344 C64.86588206 59.02580842 67.66719109 61.61831411 70.46484375 64.21484375 C71.035979 64.74408447 71.60711426 65.2733252 72.19555664 65.81860352 C73.27256963 66.81670757 74.34866268 67.81580574 75.42358398 68.81616211 C75.92059814 69.27643799 76.4176123 69.73671387 76.9296875 70.2109375 C77.42001465 70.67918945 77.9103418 71.14744141 78.41552734 71.62988281 C79.98574971 73.06260129 79.98574971 73.06260129 81.91650391 74.17480469 C84.13088341 75.63460085 85.50031833 76.79824982 87 79 C87.96167759 83.83178645 87.80557311 88.60120036 87.625 93.5 C87.59595206 94.90296853 87.56821362 96.30596475 87.54174805 97.70898438 C87.26203971 109.28595477 86.12758292 120.61838213 84 132 C83.83902832 132.90024902 83.67805664 133.80049805 83.51220703 134.72802734 C72.58751903 194.55669813 38.68178868 252.00451176 -10 289 C-10.54027832 289.41668945 -11.08055664 289.83337891 -11.63720703 290.26269531 C-21.6322116 297.9459873 -32.09209036 304.68842968 -43 311 C-43.67724121 311.39429199 -44.35448242 311.78858398 -45.05224609 312.19482422 C-86.33946248 335.94231562 -86.33946248 335.94231562 -103 334 C-105.4424715 332.17276764 -105.4424715 332.17276764 -108.04304504 329.55822754 C-108.76611667 328.8415641 -108.76611667 328.8415641 -109.5037958 328.11042261 C-111.11727349 326.50518589 -112.71222268 324.88272148 -114.30786133 323.25976562 C-115.46021952 322.10599721 -116.61367955 320.95332841 -117.76815796 319.80168152 C-120.90095775 316.67031826 -124.0180862 313.52376087 -127.1326735 310.37429619 C-130.38954598 307.08620017 -133.66055172 303.81222688 -136.93009949 300.53674316 C-143.12008828 294.33120423 -149.2972198 288.11302811 -155.46985883 281.89023638 C-162.49746136 274.80677703 -169.53924052 267.73748389 -176.58225977 260.66935825 C-191.07069529 246.12863803 -205.5411914 231.57017662 -220 217 C-216.25 215.875 -216.25 215.875 -214 217 C-212.04830439 217.2039085 -210.08636576 217.3138543 -208.125 217.375 C-206.55105469 217.44847656 -206.55105469 217.44847656 -204.9453125 217.5234375 C-189.7348175 215.50541143 -181.13761679 205.13507486 -170.82641602 194.73217773 C-169.02141695 192.93667361 -167.21493425 191.14265994 -165.40708923 189.35002136 C-161.02586991 184.99732449 -156.66121764 180.62861283 -152.30443192 176.25147557 C-148.76070436 172.69188664 -145.21013939 169.139253 -141.65467644 165.5913868 C-141.14707946 165.08486245 -140.63948249 164.57833811 -140.11650379 164.05646454 C-139.08503839 163.02723741 -138.0535574 161.99802591 -137.02206098 160.96882988 C-127.36898305 151.33567388 -117.73740811 141.68124846 -108.11314731 132.01931364 C-99.86918003 123.7440755 -91.60703289 115.48736163 -83.33129883 107.24389648 C-73.70201205 97.65213931 -64.08427156 88.04904014 -54.4844622 78.42777401 C-53.4591938 77.40027596 -52.43391086 76.37279242 -51.4086132 75.34532356 C-50.90426033 74.83989076 -50.39990745 74.33445795 -49.88027116 73.813709 C-46.33924454 70.26665905 -42.79020333 66.72775416 -39.23791695 63.19198418 C-34.44984521 58.42568813 -29.68087659 53.64103625 -24.92388344 48.84369087 C-23.1792153 47.08979663 -21.42861789 45.34177678 -19.67160416 43.60025024 C-5.27762229 29.84675383 -5.27762229 29.84675383 0.48828125 11.328125 C0.45619967 9.96786606 0.39836104 8.60792544 0.3125 7.25 C0.28994141 6.54101562 0.26738281 5.83203125 0.24414062 5.1015625 C0.18665764 3.40006623 0.09706396 1.69969775 0 0 Z " fill="#0AA06E" transform="translate(425,169)"/>
<path d="M0 0 C4.73977269 3.03558476 8.71236421 6.87368455 12.68554688 10.82519531 C14.61953522 12.74297705 16.58066629 14.63074706 18.54296875 16.51953125 C19.96622918 17.90613145 21.38811498 19.29414407 22.80859375 20.68359375 C23.47455566 21.32780273 24.14051758 21.97201172 24.82666016 22.63574219 C32.54422009 30.3048128 38.3090504 38.07242902 38.87109375 49.18359375 C38.22181619 65.79810558 27.19819236 74.79726963 16.07397461 85.82397461 C14.26861837 87.63882568 12.46475257 89.45516044 10.66226196 91.27285767 C6.28550266 95.67814049 1.89272569 100.06685643 -2.50847424 104.44770538 C-6.08760896 108.01097926 -9.65978935 111.58109024 -13.22720146 115.15609932 C-13.73650117 115.66647166 -14.24580087 116.17684399 -14.7705339 116.70268216 C-15.80539803 117.73978455 -16.84024653 118.77690254 -17.87507956 119.81403596 C-27.56117025 129.52004896 -37.26853167 139.20455893 -46.98340117 148.881755 C-55.30412079 157.17120373 -63.60631706 165.47883326 -71.89526367 173.80004883 C-81.53975873 183.48207283 -91.1955955 193.15255195 -100.86959928 202.80509859 C-101.90271432 203.83598397 -102.93581484 204.8668839 -103.96890068 205.89779854 C-104.4770976 206.40491552 -104.98529451 206.91203251 -105.50889133 207.43451668 C-109.07547791 210.99507972 -112.63391937 214.56365814 -116.18922615 218.13548088 C-120.98178677 222.94981629 -125.79270362 227.74505224 -130.61631393 232.52830887 C-132.37988377 234.28265216 -134.13757825 236.04292538 -135.88878059 237.80961418 C-153.54659898 255.60908777 -153.54659898 255.60908777 -167.16015625 258.2578125 C-178.79668592 258.21089101 -187.4572864 253.32045331 -195.62974548 245.25288391 C-196.40782059 244.4548082 -197.18589569 243.65673248 -197.98754883 242.83447266 C-198.84612488 241.97837906 -199.70470093 241.12228546 -200.58929443 240.24024963 C-202.91209884 237.91819918 -205.22113968 235.58349751 -207.52430177 233.24199343 C-209.95401705 230.77811238 -212.40070462 228.3311907 -214.84538269 225.88217163 C-218.94423436 221.77141506 -223.03204499 217.64995697 -227.11206055 213.52050781 C-232.84510406 207.71804277 -238.5981017 201.93568344 -244.35513461 196.15703321 C-248.85266167 191.6411452 -253.34472204 187.11982017 -257.8359375 182.59765625 C-258.31252375 182.11789856 -258.78911 181.63814088 -259.28013825 181.14384508 C-262.4549636 177.94713289 -265.62473519 174.745472 -268.79223633 171.54150391 C-269.58043259 170.74747665 -270.36862885 169.9534494 -271.18070984 169.13536072 C-275.28518587 164.97525147 -279.24061478 160.74087487 -283.03425121 156.29453087 C-284.98901537 154.07977611 -287.09749098 152.06821259 -289.24682617 150.04516602 C-294.50059364 145.08076854 -298.53420728 140.67870694 -300.56640625 133.55859375 C-300.81390625 132.75421875 -301.06140625 131.94984375 -301.31640625 131.12109375 C-302.26437242 121.40444056 -301.66868129 113.78861599 -295.44921875 105.859375 C-293.13936024 103.28623475 -290.7805244 100.80422981 -288.34277344 98.35400391 C-286.34396836 96.33377128 -284.38191765 94.280679 -282.41796875 92.2265625 C-280.94806538 90.7108313 -279.47671434 89.19650264 -278.00390625 87.68359375 C-277.32046143 86.97001709 -276.6370166 86.25644043 -275.93286133 85.52124023 C-268.29530239 77.80213185 -260.56083734 72.45980859 -249.50390625 72.24609375 C-248.25480469 72.20871094 -247.00570312 72.17132813 -245.71875 72.1328125 C-232.94982948 72.96404209 -225.64130029 81.69090813 -217.24609375 90.29296875 C-215.89407165 91.65619789 -214.54070644 93.01809615 -213.18606567 94.37872314 C-209.64471466 97.94285304 -206.12176414 101.52463368 -202.60247803 105.11053467 C-198.99993596 108.77473517 -195.38009488 112.42175921 -191.76171875 116.0703125 C-184.67968254 123.21646815 -177.61698698 130.38141089 -170.56640625 137.55859375 C-166.69396568 135.97955181 -164.09343325 133.35244217 -161.21064758 130.42315674 C-160.68271817 129.89481948 -160.15478876 129.36648221 -159.61086148 128.82213473 C-157.84296657 127.05050933 -156.08232765 125.27184458 -154.3215332 123.49316406 C-153.0552264 122.22138163 -151.78845556 120.95006109 -150.52125549 119.6791687 C-147.79238638 116.94058492 -145.06660748 114.19897446 -142.34310341 111.45505524 C-138.03218194 107.11231409 -133.71310538 102.77774648 -129.3926239 98.44451904 C-118.65868513 87.67649215 -107.93399556 76.89926566 -97.21429443 66.11706543 C-88.89013929 57.74439671 -80.56278598 49.3749721 -72.22480553 41.01606822 C-67.93406742 36.71383765 -63.65035774 32.40476801 -59.37185538 28.09037066 C-56.70049059 25.39973468 -54.02281452 22.71544787 -51.34338951 20.03284073 C-50.10766709 18.79311866 -48.87451422 17.55082882 -47.64422607 16.30571365 C-34.56823005 3.077926 -19.479196 -9.24382208 0 0 Z " fill="#FEFEFE" transform="translate(387.56640625,129.44140625)"/>
</svg>
